<svg id="Layer_1" data-name="Layer 1" xmlns="http://www.w3.org/2000/svg" viewBox="0 0 122.88 92.57"><defs><style>.cls-1{fill-rule:evenodd;}</style></defs><title>abacus</title><path class="cls-1" d="M14,0h0a6.4,6.4,0,0,1,6.38,6.38V16.82H33.94a9.86,9.86,0,0,1,19.24,0h6.59a9.86,9.86,0,0,1,19.24,0h23.5V6.38A6.4,6.4,0,0,1,108.89,0h0a6.4,6.4,0,0,1,6.38,6.38V81.9h5.11a2.5,2.5,0,0,1,2.5,2.49v5.68a2.5,2.5,0,0,1-2.5,2.5H2.5A2.5,2.5,0,0,1,0,90.07V84.39A2.5,2.5,0,0,1,2.5,81.9H7.61V6.38A6.4,6.4,0,0,1,14,0Zm6.38,21.18V40.79H55a9.87,9.87,0,0,1,19.24,0h6.59a9.87,9.87,0,0,1,19.24,0h2.42V21.18H79a9.87,9.87,0,0,1-19.24,0H53.18a9.87,9.87,0,0,1-19.24,0Zm52.87,35.9a9.86,9.86,0,0,1,9.62,7.68h19.65V45.15h-2.42a9.87,9.87,0,0,1-19.24,0H74.26a9.87,9.87,0,0,1-19.24,0H20.37V64.76H37.8a9.86,9.86,0,0,1,19.23,0h6.6a9.86,9.86,0,0,1,9.61-7.68Zm9.62,12a9.86,9.86,0,0,1-19.23,0H57a9.86,9.86,0,0,1-19.23,0H20.37V81.9h82.14V69.12Z"/></svg>