<?xml version="1.0" encoding="UTF-8"?>
<!DOCTYPE svg PUBLIC "-//W3C//DTD SVG 1.1//EN" "http://www.w3.org/Graphics/SVG/1.1/DTD/svg11.dtd">
<!-- Creator: CorelDRAW -->
<svg xmlns="http://www.w3.org/2000/svg" xml:space="preserve" width="512px" height="512px" version="1.1" style="shape-rendering:geometricPrecision; text-rendering:geometricPrecision; image-rendering:optimizeQuality; fill-rule:evenodd; clip-rule:evenodd"
viewBox="0 0 512 512"
 xmlns:xlink="http://www.w3.org/1999/xlink"
 xmlns:xodm="http://www.corel.com/coreldraw/odm/2003">
 <defs>
  <style type="text/css">
   <![CDATA[
    .fil3 {fill:#365D7C}
    .fil0 {fill:#603A2C}
    .fil1 {fill:#844F3C}
    .fil4 {fill:#DE5540}
    .fil2 {fill:#FE5364}
    .fil6 {fill:#FF8E4D}
    .fil5 {fill:#FFAF5F}
   ]]>
  </style>
 </defs>
 <g id="Layer_x0020_1">
  <metadata id="CorelCorpID_0Corel-Layer"/>
  <g id="_2023990444048">
   <path class="fil0" d="M434.64 82.7l-244.97 0c-3.87,0 -7,-3.13 -7,-7 0,-3.86 3.13,-7 7,-7l244.97 0c3.86,0 7,3.14 7,7 0,3.87 -3.14,7 -7,7zm-318.31 0l-38.97 0c-3.86,0 -7,-3.13 -7,-7 0,-3.86 3.14,-7 7,-7l38.97 0c3.86,0 7,3.14 7,7 0,3.87 -3.14,7 -7,7z"/>
   <path class="fil0" d="M434.64 172.85l-163.08 0c-3.87,0 -7.01,-3.13 -7.01,-7 0,-3.86 3.14,-7 7.01,-7l163.08 0c3.86,0 7,3.14 7,7 0,3.87 -3.14,7 -7,7zm-236.52 0l-120.76 0c-3.86,0 -7,-3.13 -7,-7 0,-3.86 3.14,-7 7,-7l120.76 0c3.87,0 7,3.14 7,7 0,3.87 -3.13,7 -7,7z"/>
   <path class="fil0" d="M434.64 263l-70.75 0c-3.86,0 -7,-3.13 -7,-7 0,-3.87 3.14,-7 7,-7l70.75 0c3.86,0 7,3.13 7,7 0,3.87 -3.14,7 -7,7zm-144.18 0l-213.1 0c-3.86,0 -7,-3.13 -7,-7 0,-3.87 3.14,-7 7,-7l213.1 0c3.86,0 7,3.13 7,7 0,3.87 -3.14,7 -7,7z"/>
   <path class="fil0" d="M434.64 353.15l-211.95 0c-3.86,0 -7,-3.14 -7,-7 0,-3.87 3.14,-7 7,-7l211.95 0c3.86,0 7,3.13 7,7 0,3.86 -3.14,7 -7,7zm-285.38 0l-71.9 0c-3.86,0 -7,-3.14 -7,-7 0,-3.87 3.14,-7 7,-7l71.9 0c3.86,0 7,3.13 7,7 0,3.86 -3.14,7 -7,7z"/>
   <path class="fil0" d="M434.64 443.3l-71.33 0c-3.86,0 -7,-3.14 -7,-7 0,-3.87 3.14,-7 7,-7l71.33 0c3.86,0 7,3.13 7,7 0,3.86 -3.14,7 -7,7zm-144.76 0l-212.52 0c-3.86,0 -7,-3.14 -7,-7 0,-3.87 3.14,-7 7,-7l212.52 0c3.86,0 7,3.13 7,7 0,3.86 -3.14,7 -7,7z"/>
   <path class="fil1" d="M69.68 511.99l-50.58 0c-8.1,0 -14.69,-6.59 -14.69,-14.69l0 -482.6c0,-8.1 6.59,-14.69 14.69,-14.69l50.58 0c8.1,0 14.68,6.59 14.68,14.69l0 482.6c0,8.1 -6.58,14.69 -14.68,14.69z"/>
   <path class="fil1" d="M492.91 511.99l-50.59 0c-8.09,0 -14.68,-6.59 -14.68,-14.69l0 -482.6c0,-8.1 6.59,-14.69 14.68,-14.69l50.59 0c8.1,0 14.68,6.59 14.68,14.69l0 482.6c0,8.1 -6.58,14.69 -14.68,14.69z"/>
   <path class="fil2" d="M153 117.56c-24.11,0 -43.72,-19.61 -43.72,-43.71 0,-24.11 19.61,-43.72 43.72,-43.72 24.1,0 43.71,19.61 43.71,43.72 0,24.1 -19.61,43.71 -43.71,43.71z"/>
   <path class="fil3" d="M234.84 209.57c-24.11,0 -43.72,-19.61 -43.72,-43.72 0,-24.1 19.61,-43.72 43.72,-43.72 24.1,0 43.71,19.62 43.71,43.72 0,24.11 -19.61,43.72 -43.71,43.72z"/>
   <path class="fil4" d="M327.17 299.72c-24.1,0 -43.71,-19.61 -43.71,-43.72 0,-24.11 19.61,-43.72 43.71,-43.72 24.11,0 43.72,19.61 43.72,43.72 0,24.1 -19.61,43.72 -43.72,43.72z"/>
   <path class="fil5" d="M185.98 389.87c-24.11,0 -43.72,-19.62 -43.72,-43.72 0,-24.11 19.61,-43.72 43.72,-43.72 24.1,0 43.71,19.61 43.71,43.72 0,24.1 -19.61,43.72 -43.71,43.72z"/>
   <path class="fil6" d="M326.6 480.01c-24.11,0 -43.72,-19.61 -43.72,-43.71 0,-24.11 19.61,-43.72 43.72,-43.72 24.1,0 43.71,19.61 43.71,43.72 0,24.1 -19.61,43.71 -43.71,43.71z"/>
  </g>
 </g>
</svg>
